<svg width="181" height="30" viewBox="0 0 181 30" fill="none" xmlns="http://www.w3.org/2000/svg">
<path d="M15.3666 5.15379C15.5859 5.15379 15.7976 5.11959 15.9966 5.05627L19.5203 8.52859C19.4688 8.70945 19.4412 8.89996 19.4412 9.09617C19.4412 10.2386 20.3722 11.1746 21.5329 11.1746C22.6936 11.1746 23.6246 10.2386 23.6246 9.09617C23.6246 7.95369 22.6936 7.01777 21.5329 7.01777C21.422 7.01777 21.3128 7.0264 21.206 7.04309L17.4391 3.33109C17.4517 3.23722 17.4583 3.14158 17.4583 3.04467C17.4583 1.89736 16.5393 0.935547 15.3666 0.935547C14.1938 0.935547 13.2749 1.89736 13.2749 3.04467C13.2749 3.13545 13.2806 3.22512 13.2917 3.31327L9.51952 7.04607C9.40523 7.02743 9.2881 7.01777 9.169 7.01777C8.00347 7.01777 7.04647 7.94168 7.04647 9.09617C7.04647 10.2507 8.00347 11.1746 9.169 11.1746C9.38807 11.1746 9.60011 11.1419 9.79987 11.0811L13.3362 14.6158C13.2961 14.7767 13.2749 14.9447 13.2749 15.1169C13.2749 16.2594 14.2059 17.1953 15.3666 17.1953C15.5357 17.1953 15.7007 17.1753 15.8589 17.1373L19.477 20.7537C19.4535 20.8785 19.4412 21.0069 19.4412 21.1377C19.4412 21.3047 19.4612 21.4676 19.4989 21.6239L15.941 25.1596C15.7581 25.1078 15.5653 25.0801 15.3666 25.0801C15.1622 25.0801 14.9641 25.1094 14.7767 25.164L11.2322 21.627C11.271 21.4698 11.2915 21.3058 11.2915 21.1377C11.2915 19.9832 10.3345 19.0593 9.169 19.0593C8.00347 19.0593 7.04647 19.9832 7.04647 21.1377C7.04647 22.2922 8.00347 23.2161 9.169 23.2161C9.31874 23.2161 9.46531 23.2008 9.60699 23.1717L13.2972 26.8541C13.2825 26.9537 13.2749 27.0553 13.2749 27.1585C13.2749 28.3009 14.2059 29.2369 15.3666 29.2369C16.5273 29.2369 17.4583 28.3009 17.4583 27.1585C17.4583 27.0492 17.4497 26.9417 17.4332 26.8365L21.1178 23.1751C21.2523 23.202 21.3911 23.2161 21.5329 23.2161C22.6936 23.2161 23.6246 22.2802 23.6246 21.1377C23.6246 19.9952 22.6936 19.0593 21.5329 19.0593C21.3551 19.0593 21.1819 19.0815 21.0163 19.1233L17.4176 15.5262C17.4443 15.3936 17.4583 15.2566 17.4583 15.1169C17.4583 13.9745 16.5273 13.0385 15.3666 13.0385C15.2302 13.0385 15.0965 13.0516 14.9668 13.0766L11.2714 9.38285C11.2847 9.28895 11.2915 9.19322 11.2915 9.09617C11.2915 8.89888 11.2633 8.70746 11.2105 8.52593L14.7216 5.05148C14.9249 5.11786 15.1418 5.15379 15.3666 5.15379ZM27.7613 17.1953C28.922 17.1953 29.853 16.2594 29.853 15.1169C29.853 13.9745 28.922 13.0385 27.7613 13.0385C26.6006 13.0385 25.6696 13.9745 25.6696 15.1169C25.6696 16.2594 26.6006 17.1953 27.7613 17.1953ZM3.06394 17.1953C4.22946 17.1953 5.18647 16.2714 5.18647 15.1169C5.18647 13.9624 4.22946 13.0385 3.06394 13.0385C1.89841 13.0385 0.941406 13.9624 0.941406 15.1169C0.941406 16.2714 1.89841 17.1953 3.06394 17.1953Z" fill="#00145C" stroke="#00145C" stroke-width="0.5" stroke-linecap="round" stroke-linejoin="round"/>
<mask id="path-2-outside-1_18_463" maskUnits="userSpaceOnUse" x="0" y="0" width="31" height="30" fill="black">
<rect fill="white" width="31" height="30"/>
<path fill-rule="evenodd" clip-rule="evenodd" d="M16.0108 4.98544C15.808 5.05374 15.5909 5.09085 15.3656 5.09085C15.1347 5.09085 14.9125 5.05191 14.7055 4.9804L11.1411 8.50759C11.1995 8.69435 11.2309 8.89237 11.2309 9.09692C11.2309 9.20211 11.2226 9.30567 11.2066 9.40693L14.9472 13.1458C15.0825 13.1177 15.2225 13.103 15.3656 13.103C16.4973 13.103 17.3976 14.0144 17.3976 15.1177C17.3976 15.2651 17.3816 15.4094 17.351 15.5485L20.9982 19.1941C21.1686 19.1482 21.3476 19.1237 21.5319 19.1237C22.6637 19.1237 23.564 20.0351 23.564 21.1384C23.564 22.2418 22.6637 23.1531 21.5319 23.1531C21.3835 23.1531 21.2384 23.1373 21.0984 23.1071L17.3679 26.8142C17.3875 26.9266 17.3976 27.0419 17.3976 27.1592C17.3976 28.2625 16.4973 29.1739 15.3656 29.1739C14.2338 29.1739 13.3335 28.2625 13.3335 27.1592C13.3335 27.048 13.3426 26.9385 13.3603 26.8317L9.62425 23.1036C9.47715 23.1361 9.32438 23.1531 9.16798 23.1531C8.03007 23.1531 7.10506 22.2525 7.10506 21.1384C7.10506 20.0244 8.03007 19.1237 9.16798 19.1237C10.3059 19.1237 11.2309 20.0244 11.2309 21.1384C11.2309 21.3141 11.2078 21.4849 11.1642 21.648L14.7596 25.2358C14.9512 25.1765 15.1549 25.1445 15.3656 25.1445C15.5706 25.1445 15.769 25.1748 15.9562 25.2311L19.5648 21.6452C19.5223 21.4828 19.4998 21.313 19.4998 21.1384C19.4998 20.9998 19.514 20.864 19.5412 20.7325L15.8753 17.0683C15.7121 17.1102 15.5412 17.1324 15.3656 17.1324C14.2338 17.1324 13.3335 16.221 13.3335 15.1177C13.3335 14.938 13.3573 14.7631 13.4023 14.5964L9.81469 11.0105C9.61088 11.0762 9.39332 11.1116 9.16798 11.1116C8.03007 11.1116 7.10506 10.211 7.10506 9.09692C7.10506 7.98286 8.03007 7.08222 9.16798 7.08222C9.29388 7.08222 9.41748 7.09329 9.5377 7.11458L13.3542 3.338C13.3405 3.24223 13.3335 3.14452 13.3335 3.04542C13.3335 1.93601 14.223 1 15.3656 1C16.5081 1 17.3976 1.93601 17.3976 3.04542C17.3976 3.15063 17.3897 3.25425 17.3743 3.35565L21.1857 7.11143C21.2984 7.09221 21.4142 7.08222 21.5319 7.08222C22.6637 7.08222 23.564 7.99362 23.564 9.09692C23.564 10.2002 22.6637 11.1116 21.5319 11.1116C20.4001 11.1116 19.4998 10.2002 19.4998 9.09692C19.4998 8.89337 19.5304 8.69617 19.5876 8.50999L16.0108 4.98544ZM16.0588 4.76827C15.8449 4.85603 15.6107 4.90455 15.3656 4.90455C15.1149 4.90455 14.8758 4.85384 14.6581 4.76237L10.9231 8.45839C10.999 8.65742 11.0405 8.87269 11.0405 9.09692C11.0405 9.22401 11.0272 9.34833 11.0017 9.46852L14.8868 13.3518C15.0396 13.311 15.2002 13.2893 15.3656 13.2893C16.3888 13.2893 17.2072 14.1139 17.2072 15.1177C17.2072 15.2861 17.1842 15.4495 17.141 15.605L20.9433 19.4055C21.1283 19.3436 21.3264 19.31 21.5319 19.31C22.5552 19.31 23.3736 20.1347 23.3736 21.1384C23.3736 22.1422 22.5552 22.9669 21.5319 22.9669C21.3615 22.9669 21.1962 22.9438 21.0391 22.9006L17.1617 26.7536C17.1915 26.8843 17.2072 27.0201 17.2072 27.1592C17.2072 28.163 16.3888 28.9876 15.3656 28.9876C14.3423 28.9876 13.5239 28.163 13.5239 27.1592C13.5239 27.0261 13.5382 26.896 13.5656 26.7705L9.68348 22.8966C9.51944 22.9424 9.34642 22.9669 9.16798 22.9669C8.13472 22.9669 7.29545 22.1491 7.29545 21.1384C7.29545 20.1278 8.13472 19.31 9.16798 19.31C10.2013 19.31 11.0405 20.1278 11.0405 21.1384C11.0405 21.3342 11.0089 21.5232 10.9502 21.7006L14.7084 25.4508C14.9126 25.3733 15.1343 25.3308 15.3656 25.3308C15.5912 25.3308 15.8078 25.3713 16.0079 25.4452L19.7783 21.6985C19.7211 21.5217 19.6902 21.3334 19.6902 21.1384C19.6902 20.9787 19.7109 20.8233 19.75 20.6749L15.9314 16.8581C15.7529 16.9152 15.5627 16.9461 15.3656 16.9461C14.3423 16.9461 13.5239 16.1215 13.5239 15.1177C13.5239 14.9178 13.5563 14.7249 13.6164 14.5441L9.86492 10.7944C9.64924 10.8789 9.41388 10.9253 9.16798 10.9253C8.13472 10.9253 7.29545 10.1076 7.29545 9.09692C7.29545 8.08624 8.13472 7.26852 9.16798 7.26852C9.31649 7.26852 9.46129 7.28547 9.60031 7.31757L13.5577 3.40157C13.5355 3.28607 13.5239 3.16697 13.5239 3.04542C13.5239 2.03166 14.3354 1.1863 15.3656 1.1863C16.3957 1.1863 17.2072 2.03166 17.2072 3.04542C17.2072 3.17301 17.1945 3.29789 17.17 3.41873L21.1228 7.31386C21.2546 7.28417 21.3916 7.26852 21.5319 7.26852C22.5552 7.26852 23.3736 8.09315 23.3736 9.09692C23.3736 10.1007 22.5552 10.9253 21.5319 10.9253C20.5087 10.9253 19.6902 10.1007 19.6902 9.09692C19.6902 8.87342 19.7308 8.6587 19.8051 8.46L16.0588 4.76827ZM29.7924 15.1177C29.7924 16.221 28.8921 17.1324 27.7603 17.1324C26.6285 17.1324 25.7282 16.221 25.7282 15.1177C25.7282 14.0144 26.6285 13.103 27.7603 13.103C28.8921 13.103 29.7924 14.0144 29.7924 15.1177ZM5.12584 15.1177C5.12584 16.2317 4.20083 17.1324 3.06292 17.1324C1.925 17.1324 1 16.2317 1 15.1177C1 14.0036 1.925 13.103 3.06292 13.103C4.20083 13.103 5.12584 14.0036 5.12584 15.1177ZM27.7603 16.9461C28.7836 16.9461 29.602 16.1215 29.602 15.1177C29.602 14.1139 28.7836 13.2893 27.7603 13.2893C26.7371 13.2893 25.9186 14.1139 25.9186 15.1177C25.9186 16.1215 26.7371 16.9461 27.7603 16.9461ZM4.93545 15.1177C4.93545 16.1284 4.09619 16.9461 3.06292 16.9461C2.02965 16.9461 1.19039 16.1284 1.19039 15.1177C1.19039 14.107 2.02965 13.2893 3.06292 13.2893C4.09619 13.2893 4.93545 14.107 4.93545 15.1177Z"/>
</mask>
<path fill-rule="evenodd" clip-rule="evenodd" d="M16.0108 4.98544C15.808 5.05374 15.5909 5.09085 15.3656 5.09085C15.1347 5.09085 14.9125 5.05191 14.7055 4.9804L11.1411 8.50759C11.1995 8.69435 11.2309 8.89237 11.2309 9.09692C11.2309 9.20211 11.2226 9.30567 11.2066 9.40693L14.9472 13.1458C15.0825 13.1177 15.2225 13.103 15.3656 13.103C16.4973 13.103 17.3976 14.0144 17.3976 15.1177C17.3976 15.2651 17.3816 15.4094 17.351 15.5485L20.9982 19.1941C21.1686 19.1482 21.3476 19.1237 21.5319 19.1237C22.6637 19.1237 23.564 20.0351 23.564 21.1384C23.564 22.2418 22.6637 23.1531 21.5319 23.1531C21.3835 23.1531 21.2384 23.1373 21.0984 23.1071L17.3679 26.8142C17.3875 26.9266 17.3976 27.0419 17.3976 27.1592C17.3976 28.2625 16.4973 29.1739 15.3656 29.1739C14.2338 29.1739 13.3335 28.2625 13.3335 27.1592C13.3335 27.048 13.3426 26.9385 13.3603 26.8317L9.62425 23.1036C9.47715 23.1361 9.32438 23.1531 9.16798 23.1531C8.03007 23.1531 7.10506 22.2525 7.10506 21.1384C7.10506 20.0244 8.03007 19.1237 9.16798 19.1237C10.3059 19.1237 11.2309 20.0244 11.2309 21.1384C11.2309 21.3141 11.2078 21.4849 11.1642 21.648L14.7596 25.2358C14.9512 25.1765 15.1549 25.1445 15.3656 25.1445C15.5706 25.1445 15.769 25.1748 15.9562 25.2311L19.5648 21.6452C19.5223 21.4828 19.4998 21.313 19.4998 21.1384C19.4998 20.9998 19.514 20.864 19.5412 20.7325L15.8753 17.0683C15.7121 17.1102 15.5412 17.1324 15.3656 17.1324C14.2338 17.1324 13.3335 16.221 13.3335 15.1177C13.3335 14.938 13.3573 14.7631 13.4023 14.5964L9.81469 11.0105C9.61088 11.0762 9.39332 11.1116 9.16798 11.1116C8.03007 11.1116 7.10506 10.211 7.10506 9.09692C7.10506 7.98286 8.03007 7.08222 9.16798 7.08222C9.29388 7.08222 9.41748 7.09329 9.5377 7.11458L13.3542 3.338C13.3405 3.24223 13.3335 3.14452 13.3335 3.04542C13.3335 1.93601 14.223 1 15.3656 1C16.5081 1 17.3976 1.93601 17.3976 3.04542C17.3976 3.15063 17.3897 3.25425 17.3743 3.35565L21.1857 7.11143C21.2984 7.09221 21.4142 7.08222 21.5319 7.08222C22.6637 7.08222 23.564 7.99362 23.564 9.09692C23.564 10.2002 22.6637 11.1116 21.5319 11.1116C20.4001 11.1116 19.4998 10.2002 19.4998 9.09692C19.4998 8.89337 19.5304 8.69617 19.5876 8.50999L16.0108 4.98544ZM16.0588 4.76827C15.8449 4.85603 15.6107 4.90455 15.3656 4.90455C15.1149 4.90455 14.8758 4.85384 14.6581 4.76237L10.9231 8.45839C10.999 8.65742 11.0405 8.87269 11.0405 9.09692C11.0405 9.22401 11.0272 9.34833 11.0017 9.46852L14.8868 13.3518C15.0396 13.311 15.2002 13.2893 15.3656 13.2893C16.3888 13.2893 17.2072 14.1139 17.2072 15.1177C17.2072 15.2861 17.1842 15.4495 17.141 15.605L20.9433 19.4055C21.1283 19.3436 21.3264 19.31 21.5319 19.31C22.5552 19.31 23.3736 20.1347 23.3736 21.1384C23.3736 22.1422 22.5552 22.9669 21.5319 22.9669C21.3615 22.9669 21.1962 22.9438 21.0391 22.9006L17.1617 26.7536C17.1915 26.8843 17.2072 27.0201 17.2072 27.1592C17.2072 28.163 16.3888 28.9876 15.3656 28.9876C14.3423 28.9876 13.5239 28.163 13.5239 27.1592C13.5239 27.0261 13.5382 26.896 13.5656 26.7705L9.68348 22.8966C9.51944 22.9424 9.34642 22.9669 9.16798 22.9669C8.13472 22.9669 7.29545 22.1491 7.29545 21.1384C7.29545 20.1278 8.13472 19.31 9.16798 19.31C10.2013 19.31 11.0405 20.1278 11.0405 21.1384C11.0405 21.3342 11.0089 21.5232 10.9502 21.7006L14.7084 25.4508C14.9126 25.3733 15.1343 25.3308 15.3656 25.3308C15.5912 25.3308 15.8078 25.3713 16.0079 25.4452L19.7783 21.6985C19.7211 21.5217 19.6902 21.3334 19.6902 21.1384C19.6902 20.9787 19.7109 20.8233 19.75 20.6749L15.9314 16.8581C15.7529 16.9152 15.5627 16.9461 15.3656 16.9461C14.3423 16.9461 13.5239 16.1215 13.5239 15.1177C13.5239 14.9178 13.5563 14.7249 13.6164 14.5441L9.86492 10.7944C9.64924 10.8789 9.41388 10.9253 9.16798 10.9253C8.13472 10.9253 7.29545 10.1076 7.29545 9.09692C7.29545 8.08624 8.13472 7.26852 9.16798 7.26852C9.31649 7.26852 9.46129 7.28547 9.60031 7.31757L13.5577 3.40157C13.5355 3.28607 13.5239 3.16697 13.5239 3.04542C13.5239 2.03166 14.3354 1.1863 15.3656 1.1863C16.3957 1.1863 17.2072 2.03166 17.2072 3.04542C17.2072 3.17301 17.1945 3.29789 17.17 3.41873L21.1228 7.31386C21.2546 7.28417 21.3916 7.26852 21.5319 7.26852C22.5552 7.26852 23.3736 8.09315 23.3736 9.09692C23.3736 10.1007 22.5552 10.9253 21.5319 10.9253C20.5087 10.9253 19.6902 10.1007 19.6902 9.09692C19.6902 8.87342 19.7308 8.6587 19.8051 8.46L16.0588 4.76827ZM29.7924 15.1177C29.7924 16.221 28.8921 17.1324 27.7603 17.1324C26.6285 17.1324 25.7282 16.221 25.7282 15.1177C25.7282 14.0144 26.6285 13.103 27.7603 13.103C28.8921 13.103 29.7924 14.0144 29.7924 15.1177ZM5.12584 15.1177C5.12584 16.2317 4.20083 17.1324 3.06292 17.1324C1.925 17.1324 1 16.2317 1 15.1177C1 14.0036 1.925 13.103 3.06292 13.103C4.20083 13.103 5.12584 14.0036 5.12584 15.1177ZM27.7603 16.9461C28.7836 16.9461 29.602 16.1215 29.602 15.1177C29.602 14.1139 28.7836 13.2893 27.7603 13.2893C26.7371 13.2893 25.9186 14.1139 25.9186 15.1177C25.9186 16.1215 26.7371 16.9461 27.7603 16.9461ZM4.93545 15.1177C4.93545 16.1284 4.09619 16.9461 3.06292 16.9461C2.02965 16.9461 1.19039 16.1284 1.19039 15.1177C1.19039 14.107 2.02965 13.2893 3.06292 13.2893C4.09619 13.2893 4.93545 14.107 4.93545 15.1177Z" fill="#00145C"/>
<path fill-rule="evenodd" clip-rule="evenodd" d="M16.0108 4.98544C15.808 5.05374 15.5909 5.09085 15.3656 5.09085C15.1347 5.09085 14.9125 5.05191 14.7055 4.9804L11.1411 8.50759C11.1995 8.69435 11.2309 8.89237 11.2309 9.09692C11.2309 9.20211 11.2226 9.30567 11.2066 9.40693L14.9472 13.1458C15.0825 13.1177 15.2225 13.103 15.3656 13.103C16.4973 13.103 17.3976 14.0144 17.3976 15.1177C17.3976 15.2651 17.3816 15.4094 17.351 15.5485L20.9982 19.1941C21.1686 19.1482 21.3476 19.1237 21.5319 19.1237C22.6637 19.1237 23.564 20.0351 23.564 21.1384C23.564 22.2418 22.6637 23.1531 21.5319 23.1531C21.3835 23.1531 21.2384 23.1373 21.0984 23.1071L17.3679 26.8142C17.3875 26.9266 17.3976 27.0419 17.3976 27.1592C17.3976 28.2625 16.4973 29.1739 15.3656 29.1739C14.2338 29.1739 13.3335 28.2625 13.3335 27.1592C13.3335 27.048 13.3426 26.9385 13.3603 26.8317L9.62425 23.1036C9.47715 23.1361 9.32438 23.1531 9.16798 23.1531C8.03007 23.1531 7.10506 22.2525 7.10506 21.1384C7.10506 20.0244 8.03007 19.1237 9.16798 19.1237C10.3059 19.1237 11.2309 20.0244 11.2309 21.1384C11.2309 21.3141 11.2078 21.4849 11.1642 21.648L14.7596 25.2358C14.9512 25.1765 15.1549 25.1445 15.3656 25.1445C15.5706 25.1445 15.769 25.1748 15.9562 25.2311L19.5648 21.6452C19.5223 21.4828 19.4998 21.313 19.4998 21.1384C19.4998 20.9998 19.514 20.864 19.5412 20.7325L15.8753 17.0683C15.7121 17.1102 15.5412 17.1324 15.3656 17.1324C14.2338 17.1324 13.3335 16.221 13.3335 15.1177C13.3335 14.938 13.3573 14.7631 13.4023 14.5964L9.81469 11.0105C9.61088 11.0762 9.39332 11.1116 9.16798 11.1116C8.03007 11.1116 7.10506 10.211 7.10506 9.09692C7.10506 7.98286 8.03007 7.08222 9.16798 7.08222C9.29388 7.08222 9.41748 7.09329 9.5377 7.11458L13.3542 3.338C13.3405 3.24223 13.3335 3.14452 13.3335 3.04542C13.3335 1.93601 14.223 1 15.3656 1C16.5081 1 17.3976 1.93601 17.3976 3.04542C17.3976 3.15063 17.3897 3.25425 17.3743 3.35565L21.1857 7.11143C21.2984 7.09221 21.4142 7.08222 21.5319 7.08222C22.6637 7.08222 23.564 7.99362 23.564 9.09692C23.564 10.2002 22.6637 11.1116 21.5319 11.1116C20.4001 11.1116 19.4998 10.2002 19.4998 9.09692C19.4998 8.89337 19.5304 8.69617 19.5876 8.50999L16.0108 4.98544ZM16.0588 4.76827C15.8449 4.85603 15.6107 4.90455 15.3656 4.90455C15.1149 4.90455 14.8758 4.85384 14.6581 4.76237L10.9231 8.45839C10.999 8.65742 11.0405 8.87269 11.0405 9.09692C11.0405 9.22401 11.0272 9.34833 11.0017 9.46852L14.8868 13.3518C15.0396 13.311 15.2002 13.2893 15.3656 13.2893C16.3888 13.2893 17.2072 14.1139 17.2072 15.1177C17.2072 15.2861 17.1842 15.4495 17.141 15.605L20.9433 19.4055C21.1283 19.3436 21.3264 19.31 21.5319 19.31C22.5552 19.31 23.3736 20.1347 23.3736 21.1384C23.3736 22.1422 22.5552 22.9669 21.5319 22.9669C21.3615 22.9669 21.1962 22.9438 21.0391 22.9006L17.1617 26.7536C17.1915 26.8843 17.2072 27.0201 17.2072 27.1592C17.2072 28.163 16.3888 28.9876 15.3656 28.9876C14.3423 28.9876 13.5239 28.163 13.5239 27.1592C13.5239 27.0261 13.5382 26.896 13.5656 26.7705L9.68348 22.8966C9.51944 22.9424 9.34642 22.9669 9.16798 22.9669C8.13472 22.9669 7.29545 22.1491 7.29545 21.1384C7.29545 20.1278 8.13472 19.31 9.16798 19.31C10.2013 19.31 11.0405 20.1278 11.0405 21.1384C11.0405 21.3342 11.0089 21.5232 10.9502 21.7006L14.7084 25.4508C14.9126 25.3733 15.1343 25.3308 15.3656 25.3308C15.5912 25.3308 15.8078 25.3713 16.0079 25.4452L19.7783 21.6985C19.7211 21.5217 19.6902 21.3334 19.6902 21.1384C19.6902 20.9787 19.7109 20.8233 19.75 20.6749L15.9314 16.8581C15.7529 16.9152 15.5627 16.9461 15.3656 16.9461C14.3423 16.9461 13.5239 16.1215 13.5239 15.1177C13.5239 14.9178 13.5563 14.7249 13.6164 14.5441L9.86492 10.7944C9.64924 10.8789 9.41388 10.9253 9.16798 10.9253C8.13472 10.9253 7.29545 10.1076 7.29545 9.09692C7.29545 8.08624 8.13472 7.26852 9.16798 7.26852C9.31649 7.26852 9.46129 7.28547 9.60031 7.31757L13.5577 3.40157C13.5355 3.28607 13.5239 3.16697 13.5239 3.04542C13.5239 2.03166 14.3354 1.1863 15.3656 1.1863C16.3957 1.1863 17.2072 2.03166 17.2072 3.04542C17.2072 3.17301 17.1945 3.29789 17.17 3.41873L21.1228 7.31386C21.2546 7.28417 21.3916 7.26852 21.5319 7.26852C22.5552 7.26852 23.3736 8.09315 23.3736 9.09692C23.3736 10.1007 22.5552 10.9253 21.5319 10.9253C20.5087 10.9253 19.6902 10.1007 19.6902 9.09692C19.6902 8.87342 19.7308 8.6587 19.8051 8.46L16.0588 4.76827ZM29.7924 15.1177C29.7924 16.221 28.8921 17.1324 27.7603 17.1324C26.6285 17.1324 25.7282 16.221 25.7282 15.1177C25.7282 14.0144 26.6285 13.103 27.7603 13.103C28.8921 13.103 29.7924 14.0144 29.7924 15.1177ZM5.12584 15.1177C5.12584 16.2317 4.20083 17.1324 3.06292 17.1324C1.925 17.1324 1 16.2317 1 15.1177C1 14.0036 1.925 13.103 3.06292 13.103C4.20083 13.103 5.12584 14.0036 5.12584 15.1177ZM27.7603 16.9461C28.7836 16.9461 29.602 16.1215 29.602 15.1177C29.602 14.1139 28.7836 13.2893 27.7603 13.2893C26.7371 13.2893 25.9186 14.1139 25.9186 15.1177C25.9186 16.1215 26.7371 16.9461 27.7603 16.9461ZM4.93545 15.1177C4.93545 16.1284 4.09619 16.9461 3.06292 16.9461C2.02965 16.9461 1.19039 16.1284 1.19039 15.1177C1.19039 14.107 2.02965 13.2893 3.06292 13.2893C4.09619 13.2893 4.93545 14.107 4.93545 15.1177Z" stroke="#00145C" stroke-linecap="round" stroke-linejoin="round" mask="url(#path-2-outside-1_18_463)"/>
<path d="M179.469 22.5129V7.40234H180.997V22.5129H179.469Z" fill="#00145C"/>
<path d="M171.782 22.7525C171.089 22.7525 170.471 22.626 169.928 22.3732C169.385 22.107 168.957 21.7477 168.644 21.2953C168.332 20.8428 168.176 20.3239 168.176 19.7383C168.176 19.1794 168.298 18.6737 168.542 18.2213C168.787 17.7555 169.167 17.3629 169.683 17.0436C170.199 16.7242 170.858 16.498 171.659 16.3649L175.938 15.6663V17.0236L172.026 17.6624C171.238 17.7954 170.668 18.0416 170.315 18.4009C169.975 18.7602 169.806 19.1861 169.806 19.6784C169.806 20.1575 169.996 20.5634 170.376 20.8961C170.77 21.2288 171.272 21.3951 171.884 21.3951C172.631 21.3951 173.282 21.2421 173.839 20.936C174.396 20.6166 174.831 20.1908 175.143 19.6585C175.455 19.1262 175.612 18.534 175.612 17.8819V15.1672C175.612 14.5285 175.374 14.0095 174.899 13.6103C174.423 13.211 173.805 13.0114 173.045 13.0114C172.379 13.0114 171.795 13.1778 171.293 13.5104C170.79 13.8298 170.417 14.249 170.172 14.768L168.787 14.0294C168.991 13.577 169.31 13.1645 169.744 12.7918C170.193 12.4192 170.702 12.1265 171.272 11.9136C171.843 11.6873 172.434 11.5742 173.045 11.5742C173.846 11.5742 174.552 11.7273 175.163 12.0333C175.788 12.3394 176.27 12.7652 176.61 13.3108C176.963 13.8431 177.14 14.4619 177.14 15.1672V22.5129H175.612V20.3771L175.836 20.5967C175.646 20.9959 175.347 21.3618 174.939 21.6945C174.545 22.0139 174.077 22.2734 173.534 22.473C173.004 22.6593 172.42 22.7525 171.782 22.7525Z" fill="#00145C"/>
<path d="M161.372 22.7525C160.435 22.7525 159.586 22.5462 158.826 22.1337C158.079 21.7078 157.515 21.109 157.135 20.3372L157.379 20.1176V22.5129H155.852V7.40234H157.379V14.2091L157.135 13.7899C157.57 13.1112 158.147 12.5723 158.867 12.1731C159.6 11.7738 160.435 11.5742 161.372 11.5742C162.405 11.5742 163.321 11.8204 164.123 12.3128C164.938 12.7919 165.576 13.4506 166.038 14.2889C166.513 15.1273 166.751 16.0854 166.751 17.1633C166.751 18.2279 166.513 19.1861 166.038 20.0377C165.576 20.8761 164.938 21.5415 164.123 22.0339C163.321 22.5129 162.405 22.7525 161.372 22.7525ZM161.291 21.2554C162.024 21.2554 162.676 21.0757 163.247 20.7164C163.831 20.3571 164.286 19.8714 164.612 19.2593C164.951 18.6338 165.121 17.9352 165.121 17.1633C165.121 16.3782 164.951 15.6796 164.612 15.0674C164.286 14.4553 163.831 13.9696 163.247 13.6103C162.676 13.251 162.024 13.0713 161.291 13.0713C160.558 13.0713 159.892 13.251 159.294 13.6103C158.71 13.9696 158.242 14.4619 157.889 15.0874C157.549 15.6995 157.379 16.3915 157.379 17.1633C157.379 17.9352 157.549 18.6338 157.889 19.2593C158.242 19.8714 158.71 20.3571 159.294 20.7164C159.892 21.0757 160.558 21.2554 161.291 21.2554Z" fill="#00145C"/>
<path d="M148.429 22.7525C147.397 22.7525 146.459 22.5129 145.617 22.0339C144.775 21.5415 144.103 20.8761 143.601 20.0377C143.112 19.1861 142.867 18.2213 142.867 17.1434C142.867 16.0788 143.112 15.1273 143.601 14.2889C144.09 13.4506 144.748 12.7918 145.577 12.3128C146.419 11.8204 147.369 11.5742 148.429 11.5742C149.488 11.5742 150.432 11.8138 151.261 12.2928C152.103 12.7719 152.761 13.4306 153.237 14.269C153.726 15.1073 153.97 16.0655 153.97 17.1434C153.97 18.2346 153.719 19.206 153.216 20.0577C152.714 20.8961 152.041 21.5548 151.199 22.0339C150.371 22.5129 149.447 22.7525 148.429 22.7525ZM148.429 21.2554C149.162 21.2554 149.821 21.0757 150.405 20.7164C151.002 20.3571 151.471 19.8647 151.811 19.2393C152.164 18.6138 152.34 17.9152 152.34 17.1434C152.34 16.3715 152.164 15.6796 151.811 15.0674C151.471 14.4553 151.002 13.9696 150.405 13.6103C149.821 13.251 149.162 13.0713 148.429 13.0713C147.695 13.0713 147.03 13.251 146.432 13.6103C145.848 13.9696 145.38 14.4553 145.027 15.0674C144.674 15.6796 144.497 16.3715 144.497 17.1434C144.497 17.9152 144.674 18.6138 145.027 19.2393C145.38 19.8647 145.848 20.3571 146.432 20.7164C147.03 21.0757 147.695 21.2554 148.429 21.2554Z" fill="#00145C"/>
<path d="M139.477 22.5129V7.40234H141.004V22.5129H139.477Z" fill="#00145C"/>
<path d="M130.711 22.7525C129.638 22.7525 128.653 22.5662 127.757 22.1936C126.86 21.8076 126.079 21.2753 125.414 20.5967C124.762 19.9047 124.253 19.0929 123.886 18.1614C123.519 17.2299 123.336 16.2052 123.336 15.0874C123.336 13.9696 123.519 12.9449 123.886 12.0134C124.253 11.0818 124.762 10.2701 125.414 9.57811C126.079 8.88612 126.86 8.35382 127.757 7.98122C128.653 7.5953 129.638 7.40234 130.711 7.40234C131.743 7.40234 132.666 7.58199 133.481 7.94129C134.31 8.3006 135.002 8.76636 135.559 9.33857C136.13 9.89749 136.537 10.4897 136.782 11.1151L135.315 11.8138C134.935 10.9089 134.351 10.1969 133.563 9.67791C132.775 9.15892 131.824 8.89943 130.711 8.89943C129.597 8.89943 128.606 9.15892 127.736 9.67791C126.867 10.1969 126.188 10.9222 125.699 11.8537C125.21 12.7719 124.966 13.8498 124.966 15.0874C124.966 16.3117 125.21 17.3896 125.699 18.3211C126.188 19.2526 126.867 19.9779 127.736 20.4969C128.606 21.0025 129.597 21.2554 130.711 21.2554C131.702 21.2554 132.592 21.0425 133.379 20.6166C134.181 20.1908 134.812 19.6119 135.274 18.88C135.736 18.1348 135.967 17.2831 135.967 16.325V15.5066L136.7 16.2252H130.711V14.8279H137.596V16.0655C137.596 17.0369 137.42 17.9352 137.067 18.7602C136.714 19.572 136.225 20.2773 135.6 20.8761C134.975 21.475 134.242 21.9407 133.4 22.2734C132.571 22.5928 131.675 22.7525 130.711 22.7525Z" fill="#00145C"/>
<path d="M112.951 22.7525C111.892 22.7525 110.941 22.5063 110.099 22.0139C109.271 21.5082 108.612 20.8295 108.123 19.9779C107.648 19.1262 107.41 18.1681 107.41 17.1035C107.41 16.0389 107.655 15.0807 108.144 14.2291C108.632 13.3774 109.291 12.7054 110.12 12.213C110.948 11.7206 111.885 11.4744 112.931 11.4744C113.814 11.4744 114.595 11.6474 115.274 11.9934C115.953 12.3394 116.489 12.8185 116.883 13.4306L116.537 13.9496V7.40234H118.819V22.5129H116.639V20.3172L116.904 20.7364C116.523 21.3885 115.98 21.8875 115.274 22.2335C114.568 22.5795 113.793 22.7525 112.951 22.7525ZM113.175 20.6565C113.814 20.6565 114.384 20.5035 114.887 20.1974C115.403 19.8914 115.804 19.4722 116.089 18.9399C116.388 18.3943 116.537 17.7821 116.537 17.1035C116.537 16.4248 116.388 15.8193 116.089 15.287C115.804 14.7547 115.403 14.3355 114.887 14.0294C114.384 13.7234 113.814 13.5703 113.175 13.5703C112.537 13.5703 111.96 13.7234 111.444 14.0294C110.928 14.3355 110.527 14.7547 110.242 15.287C109.957 15.8193 109.814 16.4248 109.814 17.1035C109.814 17.7821 109.957 18.3943 110.242 18.9399C110.527 19.4722 110.921 19.8914 111.423 20.1974C111.94 20.5035 112.524 20.6565 113.175 20.6565Z" fill="#00145C"/>
<path d="M101.349 22.7527C100.249 22.7527 99.2713 22.5065 98.4157 22.0141C97.5736 21.5084 96.9149 20.8297 96.4396 19.9781C95.9642 19.1131 95.7266 18.1483 95.7266 17.0837C95.7266 15.9925 95.9642 15.0277 96.4396 14.1893C96.9285 13.351 97.5804 12.6922 98.3953 12.2132C99.2102 11.7208 100.134 11.4746 101.166 11.4746C101.994 11.4746 102.735 11.6143 103.387 11.8938C104.038 12.1732 104.588 12.5592 105.037 13.0515C105.485 13.5306 105.824 14.0829 106.055 14.7083C106.3 15.3338 106.422 15.9991 106.422 16.7044C106.422 16.8774 106.415 17.0571 106.402 17.2434C106.388 17.4297 106.361 17.6027 106.32 17.7624H97.5397V15.9659H105.016L103.916 16.7843C104.052 16.1322 104.004 15.5533 103.774 15.0477C103.556 14.5287 103.217 14.1228 102.755 13.83C102.307 13.524 101.777 13.3709 101.166 13.3709C100.555 13.3709 100.012 13.524 99.5362 13.83C99.0608 14.1228 98.6941 14.5486 98.4361 15.1075C98.178 15.6531 98.0762 16.3185 98.1305 17.1037C98.0626 17.8356 98.1644 18.4743 98.4361 19.0199C98.7213 19.5655 99.1151 19.9914 99.6177 20.2974C100.134 20.6035 100.718 20.7565 101.37 20.7565C102.035 20.7565 102.599 20.6102 103.061 20.3174C103.536 20.0246 103.909 19.6454 104.181 19.1796L106.055 20.0779C105.838 20.5835 105.498 21.0427 105.037 21.4552C104.588 21.8544 104.045 22.1738 103.407 22.4133C102.782 22.6395 102.096 22.7527 101.349 22.7527Z" fill="#00145C"/>
<path d="M93.6992 22.6342C92.5447 22.6342 91.6484 22.3148 91.01 21.676C90.3717 21.0373 90.0525 20.139 90.0525 18.9813V13.7515H88.1172V11.7154H88.4228C88.9389 11.7154 89.3395 11.569 89.6247 11.2763C89.9099 10.9835 90.0525 10.5843 90.0525 10.0786V9.24023H92.3546V11.7154H94.8604V13.7515H92.3546V18.8815C92.3546 19.2541 92.4157 19.5735 92.538 19.8396C92.6602 20.0924 92.8571 20.2921 93.1288 20.4384C93.4004 20.5715 93.7535 20.638 94.1881 20.638C94.2968 20.638 94.419 20.6314 94.5548 20.6181C94.6906 20.6048 94.8196 20.5915 94.9419 20.5782V22.5144C94.7517 22.541 94.5412 22.5676 94.3103 22.5942C94.0795 22.6209 93.8757 22.6342 93.6992 22.6342Z" fill="#00145C"/>
<path d="M82.6331 22.7527C81.533 22.7527 80.5551 22.5065 79.6995 22.0141C78.8574 21.5084 78.1851 20.8297 77.6826 19.9781C77.1937 19.1264 76.9492 18.1616 76.9492 17.0837C76.9492 16.0191 77.1937 15.061 77.6826 14.2093C78.1716 13.3576 78.8438 12.6922 79.6995 12.2132C80.5551 11.7208 81.533 11.4746 82.6331 11.4746C83.38 11.4746 84.0795 11.6077 84.7314 11.8738C85.3833 12.1267 85.9469 12.4793 86.4223 12.9318C86.9112 13.3842 87.2711 13.9099 87.502 14.5087L85.4852 15.4269C85.2543 14.868 84.8808 14.4222 84.3647 14.0895C83.8622 13.7435 83.285 13.5705 82.6331 13.5705C82.0083 13.5705 81.4447 13.7236 80.9422 14.0296C80.4532 14.3224 80.0662 14.7416 79.781 15.2872C79.4957 15.8195 79.3531 16.425 79.3531 17.1037C79.3531 17.7823 79.4957 18.3945 79.781 18.9401C80.0662 19.4724 80.4532 19.8916 80.9422 20.1976C81.4447 20.5037 82.0083 20.6567 82.6331 20.6567C83.2986 20.6567 83.8758 20.4904 84.3647 20.1577C84.8672 19.8117 85.2407 19.3526 85.4852 18.7804L87.502 19.7186C87.2847 20.2908 86.9316 20.8098 86.4427 21.2755C85.9673 21.728 85.4037 22.0873 84.7518 22.3534C84.0999 22.6196 83.3936 22.7527 82.6331 22.7527Z" fill="#00145C"/>
<path d="M70.8923 22.7527C69.7922 22.7527 68.8143 22.5065 67.9587 22.0141C67.1166 21.5084 66.4579 20.8297 65.9826 19.9781C65.5072 19.1131 65.2695 18.1483 65.2695 17.0837C65.2695 15.9925 65.5072 15.0277 65.9826 14.1893C66.4715 13.351 67.1234 12.6922 67.9383 12.2132C68.7532 11.7208 69.6767 11.4746 70.7089 11.4746C71.5374 11.4746 72.2776 11.6143 72.9295 11.8938C73.5814 12.1732 74.1314 12.5592 74.5796 13.0515C75.0278 13.5306 75.3674 14.0829 75.5982 14.7083C75.8427 15.3338 75.9649 15.9991 75.9649 16.7044C75.9649 16.8774 75.9582 17.0571 75.9446 17.2434C75.931 17.4297 75.9038 17.6027 75.8631 17.7624H67.0827V15.9659H74.5593L73.4592 16.7843C73.595 16.1322 73.5474 15.5533 73.3166 15.0477C73.0993 14.5287 72.7597 14.1228 72.2979 13.83C71.8498 13.524 71.3201 13.3709 70.7089 13.3709C70.0977 13.3709 69.5545 13.524 69.0791 13.83C68.6038 14.1228 68.2371 14.5486 67.979 15.1075C67.721 15.6531 67.6191 16.3185 67.6735 17.1037C67.6055 17.8356 67.7074 18.4743 67.979 19.0199C68.2642 19.5655 68.6581 19.9914 69.1606 20.2974C69.6767 20.6035 70.2607 20.7565 70.9126 20.7565C71.5781 20.7565 72.1418 20.6102 72.6035 20.3174C73.0789 20.0246 73.4524 19.6454 73.724 19.1796L75.5982 20.0779C75.3809 20.5835 75.0414 21.0427 74.5796 21.4552C74.1314 21.8544 73.5882 22.1738 72.9499 22.4133C72.3251 22.6395 71.6392 22.7527 70.8923 22.7527Z" fill="#00145C"/>
<path d="M61.5391 22.5129V7.40234H63.8411V22.5129H61.5391Z" fill="#00145C"/>
<path d="M55.029 22.7527C53.9289 22.7527 52.951 22.5065 52.0954 22.0141C51.2533 21.5084 50.5946 20.8297 50.1193 19.9781C49.6439 19.1131 49.4062 18.1483 49.4062 17.0837C49.4062 15.9925 49.6439 15.0277 50.1193 14.1893C50.6082 13.351 51.2601 12.6922 52.075 12.2132C52.8899 11.7208 53.8134 11.4746 54.8456 11.4746C55.6741 11.4746 56.4143 11.6143 57.0662 11.8938C57.7181 12.1732 58.2682 12.5592 58.7163 13.0515C59.1645 13.5306 59.5041 14.0829 59.735 14.7083C59.9794 15.3338 60.1017 15.9991 60.1017 16.7044C60.1017 16.8774 60.0949 17.0571 60.0813 17.2434C60.0677 17.4297 60.0405 17.6027 59.9998 17.7624H51.2194V15.9659H58.696L57.5959 16.7843C57.7317 16.1322 57.6842 15.5533 57.4533 15.0477C57.236 14.5287 56.8964 14.1228 56.4347 13.83C55.9865 13.524 55.4568 13.3709 54.8456 13.3709C54.2345 13.3709 53.6912 13.524 53.2159 13.83C52.7405 14.1228 52.3738 14.5486 52.1158 15.1075C51.8577 15.6531 51.7558 16.3185 51.8102 17.1037C51.7423 17.8356 51.8441 18.4743 52.1158 19.0199C52.401 19.5655 52.7948 19.9914 53.2973 20.2974C53.8134 20.6035 54.3974 20.7565 55.0494 20.7565C55.7148 20.7565 56.2785 20.6102 56.7402 20.3174C57.2156 20.0246 57.5891 19.6454 57.8607 19.1796L59.735 20.0779C59.5177 20.5835 59.1781 21.0427 58.7163 21.4552C58.2682 21.8544 57.7249 22.1738 57.0866 22.4133C56.4618 22.6395 55.776 22.7527 55.029 22.7527Z" fill="#00145C"/>
<path d="M43.0246 22.7525C42.0739 22.7525 41.1911 22.5795 40.3762 22.2335C39.5613 21.8742 38.8687 21.3885 38.2982 20.7763C37.7278 20.1642 37.3068 19.4589 37.0352 18.6604L39.0724 17.8221C39.4391 18.7403 39.9755 19.4456 40.6818 19.9379C41.388 20.4303 42.2029 20.6765 43.1264 20.6765C43.6697 20.6765 44.1451 20.5967 44.5525 20.437C44.9599 20.264 45.2723 20.0244 45.4896 19.7184C45.7205 19.4123 45.836 19.0597 45.836 18.6604C45.836 18.1148 45.6798 17.6823 45.3674 17.363C45.055 17.0436 44.5932 16.7907 43.9821 16.6044L41.13 15.7261C39.9891 15.3801 39.1199 14.8545 38.5223 14.1492C37.9247 13.4306 37.626 12.5922 37.626 11.6341C37.626 10.7957 37.8365 10.0638 38.2575 9.43838C38.6785 8.79962 39.2557 8.3006 39.9891 7.94129C40.7361 7.58199 41.585 7.40234 42.5357 7.40234C43.4456 7.40234 44.2741 7.56203 45.0211 7.88141C45.768 8.18748 46.4064 8.61332 46.9361 9.15892C47.4793 9.70453 47.8732 10.3366 48.1176 11.0552L46.1212 11.9136C45.8224 11.1284 45.3538 10.5229 44.7155 10.0971C44.0907 9.67126 43.3641 9.45834 42.5357 9.45834C42.0331 9.45834 41.5917 9.54484 41.2115 9.71784C40.8312 9.87753 40.5324 10.1171 40.3151 10.4364C40.1114 10.7425 40.0095 11.1018 40.0095 11.5143C40.0095 11.9934 40.1657 12.4192 40.4781 12.7919C40.7904 13.1645 41.2658 13.4439 41.9041 13.6302L44.5525 14.4486C45.7613 14.8079 46.6712 15.3269 47.2824 16.0056C47.8935 16.671 48.1991 17.5027 48.1991 18.5007C48.1991 19.3258 47.975 20.0577 47.5268 20.6965C47.0922 21.3352 46.4879 21.8409 45.7137 22.2135C44.9396 22.5728 44.0432 22.7525 43.0246 22.7525Z" fill="#00145C"/>
</svg>
